# xmcd
#
# Track frame offsets:
#	150
#	18196
#	32583
#	48687
#	66779
#	84239
#	98653
#	110842
#	122772
#	138647
#	153788
#	169540
#	187348
#	202207
#	229154
#
# Disc length: 3383
#
# Revision: 2
# Processed by: cddbd v1.5.1PL0 Copyright (c) Steve Scherf et al.
# Submitted via: audiograbber 1.83.01
# Normalized: r1:DSETVAR1
#
DISCID=cd0d350f
DTITLE=Various Artist - Goldene Schlagerparade 6/2003
DYEAR=2003
DGENRE=Schlager
TTITLE0=Brunner and Brunner - Auch Männer sind Menschen
TTITLE1=Andrea Jürgens - Manchmal hilft nur deine Liebe
TTITLE2=Matthias Reim - Ich liebe dich
TTITLE3=Peter Cornelius - Schatten und Licht
TTITLE4=Seer - Es  braucht 2
TTITLE5=Die Flippers - Immer immer wieder
TTITLE6=Daniela Doren - Auf einmal passiert's
TTITLE7=Nachtfalken - Darf ich oder darf ich nicht
TTITLE8=Kurt Elsasser and Nina Stern - Gebor'n um dich zu lieben
TTITLE9=Die Paldauer - Du bist alles
TTITLE10=Robert Hain - Biabal in mir
TTITLE11=Doris Russo - Irgendwie schon Wahnsinn
TTITLE12=Surfer - Einmal im Leben
TTITLE13=Marissa - Lass dein Herz schneller schlagen
TTITLE14=Data - Daten-CD
EXTD=
EXTT0=
EXTT1=
EXTT2=
EXTT3=
EXTT4=
EXTT5=
EXTT6=
EXTT7=
EXTT8=
EXTT9=
EXTT10=
EXTT11=
EXTT12=
EXTT13=
EXTT14=
PLAYORDER=
